<?xml version="1.0" encoding="UTF-8"?>
<svg width="144px" height="93px" viewBox="0 0 144 93" version="1.1" xmlns="http://www.w3.org/2000/svg" xmlns:xlink="http://www.w3.org/1999/xlink">
    <!-- Generator: Sketch 62 (91390) - https://sketch.com -->
    <title>Group 6</title>
    <desc>Created with Sketch.</desc>
    <g id="Home" stroke="none" stroke-width="1" fill="none" fill-rule="evenodd">
        <g id="Home-(desktop)" transform="translate(-69.000000, -28.000000)" fill="#FFFFFF" fill-rule="nonzero">
            <g id="Group-6" transform="translate(69.000000, 28.000000)">
                <g id="EastbourneNetballLogo">
                    <path d="M30.4632397,91.3038887 C30.4311764,89.9669389 29.5975319,87.3908649 29.5334054,86.8365198 C29.5013421,86.6734772 29.5334054,86.5104345 29.5975319,86.3473919 L29.9181644,85.6952212 C30.0143541,85.5321786 30.1105439,85.3365274 30.2067336,85.0756591 L30.1746704,85.0430506 L30.2387969,85.0104421 C30.3029234,84.8800079 30.3349867,84.7495738 30.3670499,84.5865312 C30.5914927,83.8039264 30.6235559,83.0213216 30.9121252,81.7821974 L31.2648209,80.4126391 C31.3610107,80.1517709 31.4251372,79.8582941 31.5533902,79.5322087 C31.5533902,79.4996002 31.5854534,79.4669917 31.5854534,79.4343832 L31.6495799,78.8148211 L31.777833,78.8800381 C32.0664022,77.9996078 32.3229082,77.2496115 32.547351,76.5648324 L32.4511612,76.6300494 L33.0282997,74.9996228 C33.1244895,74.640929 33.2206793,74.3148437 33.2848058,74.0539754 C33.2848058,74.0213669 33.2848058,73.9887584 33.316869,73.9561498 L33.3809955,73.5322389 C33.4771853,72.553983 33.316869,71.2496417 33.701628,70.2713858 C33.7978178,70.0105175 33.958134,69.6518237 34.1505135,69.2279127 L34.8238418,67.6627032 C35.2727273,66.6192302 35.7857393,65.4453231 36.1704984,64.4018501 L36.6193839,62.9996832 C37.0041429,61.6301249 37.4209651,59.1192679 37.6774712,56.673628 L37.7415977,55.9562404 C37.9019139,54.3258138 37.9981037,52.8258213 37.9981037,51.8149568 C37.9660404,50.8693094 37.9660404,49.7280108 37.9660404,48.391061 L37.9660404,47.6084562 C37.9660404,46.5649832 37.9339772,45.4562932 37.9339772,44.2497775 L37.9339772,42.684568 C37.9339772,42.4236997 37.9339772,42.1302229 37.9339772,41.8693547 C37.9339772,40.9889243 37.9019139,40.0432769 37.9019139,39.0976295 C37.9019139,38.64111 37.9019139,38.2498077 37.8698507,37.8258967 L37.8377874,36.5215555 C37.7095344,32.9672255 37.4530284,31.5650587 37.0362061,30.7498454 C36.8758899,30.4563686 36.8758899,30.0976747 36.9400164,29.6737638 L37.1323959,28.9889847 C37.2285856,28.6955079 37.3247754,28.3694226 37.4209651,28.0433372 L37.6133447,27.5868178 C37.8057242,27.0976898 37.9981037,26.6085618 38.1584199,26.1520424 C38.4149259,25.4346547 38.5111157,24.7824841 38.5431789,24.228139 L38.3187362,24.8803097 L38.6073054,23.8368367 C38.6073054,23.8042281 38.6073054,23.8042281 38.6073054,23.7716196 L38.5752422,23.0542319 C38.5752422,22.8259722 38.5752422,22.630321 38.5752422,22.4346698 C38.5752422,21.7172821 38.3828627,20.5107664 38.4469892,19.4346849 L38.3828627,19.4672934 L38.5111157,16.8260023 C38.4897402,16.0651366 38.4683647,15.5107916 38.4469892,15.1629672 C38.3828627,14.2499283 38.2225464,13.4673236 38.4469892,12.6847188 C38.7355584,11.7064629 38.9279379,11.5108117 39.2165072,11.4455946 C39.5050765,11.4782031 39.7615825,11.5108117 40.0501517,11.5108117 C40.1463415,11.5108117 40.210468,11.5108117 40.3066577,11.5108117 C40.5631638,11.5108117 40.7876065,11.4782031 41.0120493,11.4455946 L41.621251,11.3151605 C41.7815673,11.2499434 41.9739468,11.2173349 42.1342631,11.1521178 L42.4548956,11.0216837 C42.6793383,10.9238581 42.8717178,10.793424 43.0640973,10.6955984 L43.3847299,10.4999472 C44.8275762,9.45647419 45.7894737,7.72822201 45.7894737,5.77171011 C45.7894737,5.54345038 45.7894737,5.34779919 45.7574104,5.152148 L45.2443984,3.45650436 C45.0092679,2.89128981 44.7527619,2.44563988 44.4748804,2.11955456 L43.4488564,1.14129861 C42.4869588,0.423910912 41.3326818,0 40.0501517,0 C36.9079531,0 34.342893,2.60868253 34.342893,5.80431864 C34.342893,6.97822578 34.6955888,8.05430732 35.2727273,8.96734621 L35.7216128,9.61951684 L35.5292333,9.97821069 C35.3368538,10.3695131 35.0803478,10.7608155 35.0162213,11.0216837 C34.9841581,11.0869008 35.0162213,11.1521178 35.0803478,11.2499434 L35.3047906,11.5434202 C35.7536761,12.1955908 36.6193839,13.3042809 36.3308146,15.3260099 C36.2987514,15.5542696 36.2666881,15.7825293 36.2346249,16.0107891 L36.2025616,16.4673085 C35.8819291,18.8803398 35.6254231,21.1955456 35.1124111,23.6085769 C34.5032093,26.4129107 33.316869,28.5324652 32.8679835,28.8585505 C32.4832245,29.1194188 32.3870347,28.7607249 32.290845,28.3694226 L32.2267185,27.9455116 C32.2587817,27.6520349 32.5152877,27.4563837 32.675604,27.0976898 C32.9000467,26.6737789 32.3870347,25.3694376 32.1946552,25.0433523 C32.0022757,24.717267 32.419098,24.2933561 32.3229082,23.9672708 C32.2267185,23.6411855 32.0022757,23.7390111 31.4892637,23.4455343 C31.4572004,23.4455343 31.4572004,23.4129257 31.4251372,23.4129257 L31.1045047,23.0542319 C30.837353,22.9024672 30.6342857,22.6959465 30.4953029,22.4346698 C30.3563201,22.1733931 30.0784386,21.9668724 29.6616584,21.8151077 C29.2127729,21.652065 28.6356343,21.6194565 27.4172308,21.8803248 C25.7178785,22.2716271 24.3070954,23.4129257 24.1788424,24.1955305 C24.1147159,24.5542243 24.1136379,24.6321526 24.1467792,25.0433523 C24.1781238,25.4322593 24.2422503,25.8126922 24.3391587,26.1846509 C24.4032852,26.4781277 24.4353485,26.7063874 24.3391587,26.7063874 L23.9543997,26.7063874 C23.9223364,26.7063874 23.9223364,26.7063874 23.8902732,26.7063874 C23.2169449,26.6737789 22.9604389,27.1629069 22.7359961,27.7172519 C22.7146206,27.7389909 22.7039329,27.7715995 22.7039329,27.8150775 L22.5756799,28.336814 L22.5756799,28.3042055 C22.4794901,28.6955079 22.6077431,28.8585505 22.7039329,29.2498529 C22.8001226,29.8041979 24.1788424,30.358543 24.6918545,30.2607174 C25.2369297,30.1628918 26.1988273,28.9889847 26.1988273,28.9889847 C26.1988273,28.9889847 26.1988273,28.9889847 26.5194598,29.31507 C26.8400923,29.6411553 27.0324718,29.6411553 27.0324718,29.6411553 C27.0324718,29.6411553 27.1286615,30.0650662 26.808029,30.6194112 C26.5835863,30.9781051 25.2369297,31.6628843 24.1467792,32.0867952 L23.8261467,32.1846208 C23.5696407,32.2824464 23.3131347,32.3476634 23.1207552,32.380272 L22.3833004,32.9757701 C22.1267944,33.2692469 21.3252131,33.6846132 21.1007703,34.0106985 C21.0687071,34.0433071 21.0366438,34.0759156 21.0045806,34.1085241 L20.3953788,34.7280862 C19.8503035,35.1519971 19.6604049,35.6349106 18.6343808,35.8631703 C17.9610526,36.026213 17.221117,36.2932958 16.5157254,36.4563384 L13.9186021,37.3693773 L12.12306,38.2824162 C11.270809,38.6969463 8.62382086,39.4630516 6.89783639,39.5608772 C6.73061034,39.5703553 6.13209632,39.4159394 5.10229433,39.0976295 C4.36483955,38.9998039 3.62738478,39.3258892 4.36483955,40.5976219 C4.85647607,41.4454438 5.46531574,41.8693547 6.19135857,41.8693547 C7.50595187,41.6084864 10.968783,41.4454438 12.12306,41.2497926 C12.2833763,41.217184 12.4436925,41.1845755 12.5719455,41.1845755 C13.1490841,41.1193584 13.5124676,41.0758804 13.6620961,41.0541414 L14.0468551,40.9889243 C14.5919304,40.8910987 15.0087526,40.7932731 15.2973219,40.5976219 C15.6500176,40.3041451 16.8042947,39.5867575 18.118888,38.9998039 L19.3052283,38.5106759 C19.529671,38.4128503 19.786177,38.3476332 20.0106198,38.2824162 L21.0366438,37.9889394 C21.0580193,37.9889394 21.1862723,37.9345918 21.4214028,37.8258967 C21.5710314,37.7606797 21.8916639,37.6085065 22.3833004,37.3693773 C23.3772612,36.8802493 24.1467792,36.3911213 24.5315382,36.3259043 C25.1728032,36.2280787 27.0324718,38.9671953 27.7378633,40.6302305 C28.4432548,42.260657 28.4111916,44.2171689 27.8340531,45.4889017 C27.2889778,46.7606344 27.064535,46.6628088 25.14074,47.3801965 C23.2169449,48.0975842 22.2550474,48.0649757 21.3572763,49.6627937 C21.0152683,50.2932253 20.4701931,51.2497423 19.7220505,52.5323445 C19.5617343,52.8584298 19.529671,53.0866896 19.6258608,53.1845152 C19.9464933,53.5106005 20.8763276,54.2932052 20.7480746,54.7171161 C20.6839481,54.9779844 19.9785565,56.119283 19.1769753,57.2931901 L19.144912,57.3584072 C18.9525325,57.6192755 17.9265085,59.0540509 17.734129,59.2823106 C17.306619,59.7823081 16.6012274,60.3801311 15.6179544,61.0757798 C14.6133059,61.6844724 14.0468551,62.0214272 13.9186021,62.0866443 C12.8925781,62.782293 12.3261273,63.1735954 12.2192498,63.2605514 L11.0649727,64.0431562 C10.1672017,64.6627183 9.30149393,65.380106 8.72435541,66.2605364 C7.73039463,67.7605288 6.8326236,69.4561725 6.19135857,69.7822578 C5.64628331,70.043126 5.06914479,70.4670369 4.10724725,71.2496417 C3.61561074,71.6192051 3.32704148,71.8365953 3.24153947,71.9018123 L2.37583169,72.6518086 L2.02313593,72.6518086 C1.44599741,72.9452854 0.900922143,73.1735451 0.516163129,73.3365877 L0.22759387,73.4996304 C-0.317481399,73.8257157 0.195530618,74.2496266 0.932985394,75.4561423 C1.31774441,76.0757044 1.76662992,76.5974409 2.21551544,76.9561347 L2.85678046,77.4126542 C2.98503346,77.4778713 3.11328647,77.5104798 3.20947622,77.5430883 C3.72248824,77.6735224 4.62025927,76.17353 4.84470203,75.3257082 C5.06914479,74.4778863 5.93485257,73.8257157 6.92881335,72.7822427 C7.92277413,71.7387697 9.10911442,70.9887735 10.071012,70.4670369 C11.0329095,69.9453004 11.8986173,69.4235639 12.8605148,68.7061762 C13.0315188,68.5757421 13.3307758,68.3474824 13.7582858,68.0213971 C14.5598671,67.3692264 15.3614484,66.6518387 15.7462074,66.1301022 C15.9385869,65.8366254 16.2271562,65.7061913 16.5157254,65.5757572 L16.9004844,65.4779316 C17.2852435,65.380106 17.734129,65.3148889 18.118888,65.1192378 C18.1830145,65.0757597 18.717402,64.7714134 19.7220505,64.2061989 C19.9464933,64.0757647 20.1388728,63.9127221 20.2991891,63.782288 C22.0519801,62.4344686 23.3879489,61.4888212 24.3070954,60.9453457 C26.081262,59.9670897 26.9897208,59.4670923 27.0324718,59.4453532 L28.2188121,58.6627485 C28.6035711,58.4018802 28.9242036,58.141012 29.1165831,57.9127523 C29.7578481,57.162756 30.3991132,57.1953646 30.7197457,57.6192755 C30.9762517,57.9779693 31.0083149,58.3692717 30.9121252,60.3910007 L30.8479987,62.5105552 C30.7197457,64.1409818 30.5594294,65.5757572 30.3991132,66.6518387 C30.2281091,67.7387898 30.1319194,68.3257434 30.1105439,68.4126994 C30.0891684,68.4779165 30.0784806,68.6409592 30.0784806,68.9018274 C30.0464174,69.3583469 30.1426071,69.7496492 30.2067336,70.1409516 C30.2387969,70.3039943 30.2067336,70.532254 30.1746704,70.7931223 L30.0784806,71.3148588 C30.0143541,71.6083356 29.8861011,71.9344209 29.7899114,72.2605062 L29.5013421,73.0105024 C29.4692789,73.0757195 29.4372156,73.1409365 29.4051524,73.2387621 C28.9883301,74.2496266 28.9883301,76.8909177 28.9883301,78.7822125 L29.0203934,79.2061234 C29.0203934,79.7278599 28.9883301,80.1517709 28.9562669,80.4452476 C28.8280139,81.8474145 28.4753181,82.6952363 27.9302428,82.923496 C27.5775471,83.0539302 27.0965983,83.1191472 26.7118393,83.4452326 L26.4553333,83.7061008 C26.3591435,83.8691435 26.2629538,84.0321861 26.2308905,84.2604458 C26.1988273,84.39088 26.1988273,84.5539226 26.166764,84.6517482 L26.1988273,85.0756591 C26.295017,85.7278298 26.679776,86.2821748 26.9042188,87.2930393 C27.192788,88.6952061 27.6737368,91.3038887 28.3791283,92.3147532 C28.5073813,92.5104044 28.6676976,92.6408385 28.8600771,92.7386641 L29.3410259,92.9669238 C30.0143541,93.0973579 30.7518089,92.8364897 31.0403782,92.2821446 C31.0724414,92.2495361 31.0724414,92.184319 31.1045047,92.119102 L31.0083149,92.184319 L30.4632397,91.3038887 Z" id="Shape"></path>
                </g>
                <g id="Group-3" transform="translate(54.692982, 30.575342)">
                    <path d="M28.0928253,0 L28.0928253,29.8606749 L-1.03028697e-13,29.8606749 L-1.03028697e-13,0 L28.0928253,0 Z M20.5556439,4.30065948 L7.08339403,4.30065948 C6.5701629,4.30065948 6.31355119,4.58338571 6.31355119,5.14884665 L6.31355119,5.14884665 L6.31355119,25.5670252 C6.31355119,26.1324862 6.5701629,26.4152124 7.08339403,26.4152124 L7.08339403,26.4152124 L21.0175496,26.4152124 C21.5821038,26.4152124 21.8643767,26.183891 21.8643767,25.7212411 L21.8643767,25.7212411 L21.8643767,24.5800438 C21.8643767,24.1173939 21.5821038,23.8860725 21.0175496,23.8860725 L21.0175496,23.8860725 L9.26974772,23.8860725 L9.26974772,16.2061231 L19.6318325,16.2061231 C20.1963867,16.2061231 20.4786596,15.9748017 20.4786596,15.5121518 L20.4786596,15.5121518 L20.4786596,14.3709545 C20.4786596,13.9083046 20.1963867,13.6769832 19.6318325,13.6769832 L19.6318325,13.6769832 L9.26974772,13.6769832 L9.26974772,6.82979942 L20.5556439,6.82979942 C21.1201981,6.82979942 21.402471,6.59847796 21.402471,6.1358281 L21.402471,6.1358281 L21.402471,4.9946308 C21.402471,4.53198094 21.1201981,4.30065948 20.5556439,4.30065948 L20.5556439,4.30065948 Z" id="Combined-Shape"></path>
                </g>
                <g id="Group-2" transform="translate(85.219298, 30.575342)">
                    <path d="M28.0928253,0 L28.0928253,29.8606749 L-1.03028697e-13,29.8606749 L-1.03028697e-13,0 L28.0928253,0 Z M7.76085574,4.30065948 L5.79005805,4.30065948 C5.27682692,4.30065948 5.0202152,4.58338571 5.0202152,5.14884665 L5.0202152,5.14884665 L5.0202152,25.5670252 C5.0202152,26.1324862 5.27682692,26.4152124 5.79005805,26.4152124 L5.79005805,26.4152124 L7.20656889,26.4152124 C7.71980002,26.4152124 7.97641174,26.1324862 7.97641174,25.5670252 L7.97641174,25.5670252 L7.97641174,9.71363583 C7.97641174,9.3023915 7.96614727,8.89115335 7.94561803,8.47990902 L7.94561803,8.47990902 L8.00720545,8.47990902 L18.2615122,25.6441332 C18.5694509,26.1581886 19.0826743,26.4152124 19.8011979,26.4152124 L19.8011979,26.4152124 L21.1561213,26.4152124 C21.6693524,26.4152124 21.9259642,26.1324862 21.9259642,25.5670252 L21.9259642,25.5670252 L21.9259642,5.14884665 C21.9259642,4.58338571 21.6693524,4.30065948 21.1561213,4.30065948 L21.1561213,4.30065948 L19.7396105,4.30065948 C19.2263793,4.30065948 18.9697676,4.58338571 18.9697676,5.14884665 L18.9697676,5.14884665 L18.9697676,20.0152546 C18.9697676,20.426499 18.9800321,20.8377371 19.0005613,21.2489814 L19.0005613,21.2489814 L18.9389739,21.2489814 L9.30054144,5.07173873 C8.99260276,4.55768332 8.47937933,4.30065948 7.76085574,4.30065948 L7.76085574,4.30065948 Z" id="Combined-Shape"></path>
                </g>
                <g id="Group" transform="translate(115.745614, 30.575342)">
                    <path d="M28.0928253,0 L28.0928253,29.8606749 L-1.03028697e-13,29.8606749 L-1.03028697e-13,0 L28.0928253,0 Z M9.53149429,4.30065948 L8.11498345,4.30065948 C7.60175232,4.30065948 7.3451406,4.58338571 7.3451406,5.14884665 L7.3451406,5.14884665 L7.3451406,25.5670252 C7.3451406,26.1324862 7.60175232,26.4152124 8.11498345,26.4152124 L8.11498345,26.4152124 L20.5094533,26.4152124 C21.0740076,26.4152124 21.3562804,26.183891 21.3562804,25.7212411 L21.3562804,25.7212411 L21.3562804,24.5800438 C21.3562804,24.1173939 21.0740076,23.8860725 20.5094533,23.8860725 L20.5094533,23.8860725 L10.3013371,23.8860725 L10.3013371,5.14884665 C10.3013371,4.58338571 10.0447254,4.30065948 9.53149429,4.30065948 L9.53149429,4.30065948 Z" id="Combined-Shape"></path>
                </g>
            </g>
        </g>
    </g>
</svg>