<?xml version="1.0" encoding="UTF-8"?>
<svg width="160px" height="160px" viewBox="0 0 160 160" version="1.1" xmlns="http://www.w3.org/2000/svg" xmlns:xlink="http://www.w3.org/1999/xlink">
    <title>Group 5</title>
    <defs>
        <linearGradient x1="42.1266522%" y1="92.6830619%" x2="87.555455%" y2="1.85416349%" id="linearGradient-1">
            <stop stop-color="#5A0891" offset="0%"></stop>
            <stop stop-color="#6032D2" offset="96.3579299%"></stop>
        </linearGradient>
    </defs>
    <g id="Home" stroke="none" stroke-width="1" fill="none" fill-rule="evenodd">
        <g id="Group-5">
            <g id="Group-4" fill-rule="nonzero">
                <rect id="Rectangle-Copy-7" fill="url(#linearGradient-1)" x="0" y="0" width="160" height="160"></rect>
                <path d="M160,0 L160,160 L0,160 L0,0 L160,0 Z M130.211538,83 L101,83 L101,114 L130.211538,114 L130.211538,83 Z M72.1075828,10 C68.6078237,10 65.7508774,12.889186 65.7508774,16.4284389 C65.7508774,17.7285726 66.1437075,18.9203619 66.7865204,19.931577 L67.286486,20.6538735 L67.0722151,21.0511366 C66.8579441,21.4845145 66.5722495,21.9178924 66.5008258,22.206811 C66.465114,22.2790406 66.5008258,22.3512703 66.5722495,22.4596148 L66.8222323,22.7846482 C67.3221979,23.5069447 68.2864172,24.7348488 67.9650108,26.9739679 C67.9292989,27.2267717 67.8935871,27.4795755 67.8578753,27.7323793 L67.8221634,28.2379868 C67.4650452,30.9104839 67.1793505,33.4746365 66.6079613,36.1471336 C65.9294366,39.2530086 64.6080989,41.6004722 64.1081333,41.9616205 C63.6795914,42.2505391 63.5724559,41.853276 63.4653204,41.4198981 L63.3938968,40.9504054 C63.4296086,40.6253719 63.7153032,40.408683 63.8938624,40.0114199 C64.1438452,39.5419272 63.5724559,38.0973342 63.3581849,37.7361859 C63.143914,37.3750377 63.6081677,36.9055449 63.5010323,36.5443967 C63.3938968,36.1832484 63.143914,36.2915929 62.5725247,35.9665595 C62.5368129,35.9665595 62.5368129,35.9304446 62.5011011,35.9304446 L62.1439828,35.5331816 C61.8464311,35.3650981 61.6202562,35.1363709 61.4654581,34.8469999 C61.31066,34.5576289 61.0011574,34.3289017 60.5369505,34.1608182 C60.0369849,33.9802441 59.394172,33.9441292 58.0371226,34.2330478 C56.1443957,34.6664257 54.5730753,35.9304446 54.430228,36.7972004 C54.3588043,37.1944635 54.3576036,37.2807711 54.3945161,37.7361859 C54.4294275,38.1669108 54.5008511,38.5882505 54.6087871,39.0002048 C54.6802108,39.3252382 54.7159226,39.578042 54.6087871,39.578042 L54.1088215,39.578042 C53.3588731,39.5419272 53.0731785,40.0836496 52.8231957,40.6976016 C52.7993878,40.7216781 52.7874839,40.757793 52.7874839,40.8059461 L52.6446366,41.3837833 L52.6446366,41.3476684 C52.5375011,41.7810464 52.6803484,41.9616205 52.7874839,42.3949984 C52.8946194,43.0089504 54.430228,43.6229024 55.0016172,43.514558 C55.5749904,43.4122326 56.5624666,42.2468607 56.6704165,42.1176908 L56.6800731,42.1060798 C56.6800731,42.1060798 56.6800731,42.1060798 57.0371914,42.467228 C57.3943097,42.8283763 57.6085806,42.8283763 57.6085806,42.8283763 C57.6085806,42.8283763 57.7157161,43.297869 57.3585979,43.9118211 C57.1086151,44.3090841 55.6087183,45.0674955 54.3945161,45.5369882 L54.0373979,45.6453327 C53.7517032,45.7536771 53.4660086,45.8259068 53.2517376,45.8620216 L52.4303656,46.5215519 C52.144671,46.8465853 51.2518753,47.3066146 51.0018925,47.6677629 C50.9661807,47.7038777 50.9304688,47.7399925 50.894757,47.7761074 L50.2162323,48.4622891 C49.6091312,48.9317818 49.3976234,49.4666214 48.2548449,49.7194252 C47.5048965,49.8999993 46.6807613,50.1958007 45.8951011,50.3763748 L43.002443,51.3875899 L41.0025807,52.398805 C40.0533493,52.8579083 37.1051522,53.7063905 35.1827626,53.814735 C34.9965074,53.8252322 34.3298866,53.6542124 33.1829002,53.3016757 C32.3615282,53.1933312 31.5401561,53.5544794 32.3615282,54.9629576 C32.9091096,55.9019431 33.587231,56.3714358 34.3958925,56.3714358 C35.8600774,56.0825172 39.7169548,55.9019431 41.0025807,55.6852541 C41.1811398,55.6491393 41.3596989,55.6130245 41.5025462,55.6130245 C42.1453591,55.5407948 42.5500932,55.4926417 42.7167484,55.4685652 L43.1452903,55.3963355 C43.7523914,55.2879911 44.2166452,55.1796466 44.5380516,54.9629576 C44.9308817,54.6379242 46.2165075,53.843398 47.6806925,53.1933312 L49.0020301,52.6516088 C49.2520129,52.5432643 49.5377075,52.4710347 49.7876903,52.398805 L50.9304688,52.0737716 C50.9542767,52.0737716 51.097124,52.0135802 51.3590108,51.8931975 C51.525666,51.8209678 51.8827842,51.652432 52.4303656,51.3875899 C53.5374323,50.8458675 54.3945161,50.3041451 54.8230581,50.2319155 C55.5372946,50.123571 57.6085806,53.1572164 58.3942409,54.9990724 C59.1799011,56.8048137 59.1441893,58.9717032 58.5013763,60.3801814 C57.8942753,61.7886596 57.6442925,61.6803151 55.5015828,62.4748413 C53.3588731,63.2693675 52.2875183,63.2332526 51.2875871,65.0028791 C50.9066609,65.701099 50.2995599,66.7604673 49.4662839,68.1809837 C49.2877247,68.542132 49.2520129,68.7949358 49.3591484,68.9032802 C49.7162667,69.2644285 50.7519097,70.1311843 50.6090624,70.600677 C50.5376387,70.8895956 49.7519785,72.1536145 48.8591828,73.4537482 L48.823471,73.5259779 C48.6092,73.8148965 47.4664215,75.4039488 47.2521505,75.6567526 C46.7759928,76.2105132 45.9903326,76.8726184 44.8951699,77.643068 C43.7761993,78.3172114 43.1452903,78.6903979 43.002443,78.7626276 C41.8596645,79.5330772 41.2287556,79.9664551 41.1097161,80.0627613 L39.8240903,80.9295171 C38.8241591,81.6156988 37.8599398,82.4102249 37.2171269,83.3853252 C36.1100602,85.0466072 35.110129,86.9245781 34.3958925,87.2857264 C33.7887914,87.574645 33.1459785,88.0441377 32.0746237,88.9108935 C31.5270423,89.3201949 31.2056359,89.5609604 31.1104043,89.63319 L30.146185,90.463831 L29.7533548,90.463831 C29.1105419,90.7888644 28.5034409,91.0416682 28.0748989,91.2222423 L27.7534925,91.4028165 C27.1463914,91.7639647 27.7177807,92.2334574 28.5391527,93.569706 C28.9676946,94.2558877 29.4676602,94.8337249 29.9676258,95.2309879 L30.6818624,95.7365955 C30.8247097,95.8088252 30.967557,95.84494 31.0746925,95.8810548 C31.6460817,96.0255141 32.6460129,94.3642321 32.8959957,93.4252467 C33.1459785,92.4862612 34.1101979,91.7639647 35.2172645,90.6082903 C36.3243312,89.4526159 37.6456688,88.6219749 38.7170237,88.0441377 C39.7883785,87.4663005 40.7525979,86.8884633 41.8239527,86.0939371 C42.0144158,85.9494778 42.3477262,85.696674 42.8238839,85.3355258 C43.7166796,84.6132293 44.6094753,83.8187031 45.0380172,83.2408659 C45.2522882,82.9158325 45.5736946,82.7713732 45.8951011,82.6269139 L46.323643,82.5185694 C46.752185,82.4102249 47.2521505,82.3379953 47.6806925,82.1213063 C47.7521161,82.0731532 48.3473133,81.7360815 49.4662839,81.1100912 C49.7162667,80.9656319 49.9305376,80.7850578 50.1090968,80.6405985 C52.0613434,79.1478524 53.5493362,78.1005224 54.5730753,77.4986087 C56.5491298,76.4151639 57.5609649,75.8614033 57.6085806,75.8373267 L58.9299183,74.9705709 C59.3584602,74.6816523 59.7155785,74.3927337 59.9298495,74.1399299 C60.644086,73.3092889 61.3583226,73.3454038 61.7154409,73.8148965 C62.0011355,74.2121596 62.0368473,74.6455375 61.9297118,76.8846566 L61.8582882,79.2321203 C61.7154409,81.0378616 61.5368817,82.6269139 61.3583226,83.8187031 C61.1678595,85.0225306 61.060724,85.6725975 61.0369161,85.7689037 C61.0131082,85.8411333 61.0012043,86.0217075 61.0012043,86.3106261 C60.9654925,86.8162336 61.072628,87.2496115 61.1440516,87.6829894 C61.1797634,87.8635636 61.1440516,88.1163673 61.1083398,88.4052859 L61.0012043,88.9831232 C60.9297806,89.3081566 60.7869333,89.6693048 60.6797979,90.0304531 L60.3583914,90.8610941 C60.3226796,90.9333237 60.2869677,91.0055534 60.2512559,91.1138979 C59.7870022,92.2334574 59.7870022,95.1587583 59.7870022,97.2534182 L59.822714,97.7229109 C59.822714,98.3007481 59.7870022,98.7702408 59.7512903,99.0952743 C59.608443,100.648212 59.2156129,101.587197 58.6085118,101.840001 C58.2156817,101.98446 57.6800043,102.05669 57.2514624,102.417838 L56.9657677,102.706757 C56.8586323,102.887331 56.7514968,103.067905 56.715785,103.320709 C56.6800731,103.465168 56.6800731,103.645742 56.6443613,103.754087 L56.6800731,104.223579 C56.7872086,104.945876 57.2157505,105.559828 57.4657333,106.679388 C57.7871398,108.232325 58.3228172,111.121511 59.1084774,112.241071 C59.2513247,112.45776 59.4298839,112.602219 59.6441548,112.710563 L60.1798323,112.963367 C60.9297806,113.107827 61.7511527,112.818908 62.0725591,112.204956 C62.108271,112.168841 62.108271,112.096611 62.1439828,112.024382 L62.0368473,112.096611 L61.4297462,111.121511 C61.3940344,109.640803 60.4655269,106.787732 60.3941032,106.17378 C60.3583914,105.993206 60.3941032,105.812632 60.4655269,105.632058 L60.8226452,104.909761 C60.9297806,104.729187 61.0369161,104.512498 61.1440516,104.223579 L61.1083398,104.187465 L61.1797634,104.15135 C61.2511871,104.006891 61.2868989,103.862431 61.3226108,103.681857 C61.5725936,102.815101 61.6083054,101.948345 61.9297118,100.575982 L62.3225419,99.0591594 C62.4296774,98.7702408 62.5011011,98.4452074 62.6439484,98.0840592 C62.6439484,98.0479443 62.6796602,98.0118295 62.6796602,97.9757147 L62.7510839,97.289533 L62.8939312,97.3617626 C63.2153376,96.3866624 63.5010323,95.5560214 63.7510151,94.79761 L63.6438796,94.8698397 L64.2866925,93.0640984 C64.393828,92.6668353 64.5009634,92.3056871 64.5723871,92.0167685 C64.5723871,91.9806537 64.5723871,91.9445388 64.6080989,91.908424 L64.6795226,91.4389313 C64.7866581,90.3554865 64.6080989,88.9108935 65.0366409,87.8274487 C65.1437763,87.5385301 65.3223355,87.1412671 65.5366065,86.6717743 L66.2865548,84.9382627 C66.7865204,83.7825883 67.3579097,82.4824546 67.7864516,81.3267802 L68.2864172,79.7738427 C68.7149591,78.25702 69.1792129,75.4761785 69.4649075,72.7675665 L69.5363312,71.9730404 C69.7148903,70.1672991 69.8220258,68.5060171 69.8220258,67.3864576 C69.7942499,66.5718676 69.7880775,65.6261942 69.7867059,64.5494374 L69.786314,62.7276451 C69.786314,61.5719707 69.7506022,60.3440666 69.7506022,59.0078181 L69.7506022,56.3714358 C69.7506022,55.3963355 69.7148903,54.3490056 69.7148903,53.3016757 C69.7148903,52.7960681 69.7148903,52.3626902 69.6791785,51.8931975 L69.6434667,50.4486044 C69.5006194,46.5120885 69.2149247,44.959151 68.750671,44.0562804 C68.5721118,43.7312469 68.5721118,43.3339838 68.6435355,42.8644911 L68.8578065,42.1060798 C68.9649419,41.7810464 69.0720774,41.4198981 69.1792129,41.0587498 L69.3934839,40.5531423 C69.6077548,40.0114199 69.8220258,39.4696975 70.0005849,38.96409 C70.2862796,38.1695638 70.3934151,37.4472673 70.4291269,36.8333153 L70.1791441,37.5556118 L70.5005505,36.3999374 L70.5005505,36.3277077 L70.4648387,35.5331816 L70.4648387,34.8469999 C70.4648387,34.0524737 70.2505677,32.7162252 70.3219914,31.5244359 L70.2505677,31.5605508 L70.3934151,28.6352499 C70.3696072,27.7925706 70.3457993,27.1786186 70.3219914,26.7933938 C70.2505677,25.7821787 70.0720086,24.9154229 70.3219914,24.0486671 C70.6433979,22.9652223 70.8576688,22.7485334 71.1790753,22.6763037 C71.5004817,22.7124185 71.7861763,22.7485334 72.1075828,22.7485334 L72.3932774,22.7485334 C72.678972,22.7485334 72.9289548,22.7124185 73.1789376,22.6763037 L73.8574624,22.5318444 C74.0360215,22.4596148 74.2502925,22.4234999 74.4288516,22.3512703 L74.7859699,22.206811 C75.0359527,22.0984665 75.2502237,21.9540072 75.4644946,21.8456627 L75.8216129,21.6289738 C77.4286452,20.4732994 78.5,18.5592136 78.5,16.3923241 C78.5,16.1395203 78.5,15.9228314 78.4642882,15.7061424 L77.8928989,13.8281715 C77.6310122,13.2021812 77.3453176,12.7086119 77.0358151,12.3474637 L75.8930366,11.2640189 C74.8216817,10.4694927 73.5360559,10 72.1075828,10 Z M110.911058,87.4647498 C111.444727,87.4647498 111.711557,87.7582634 111.711557,88.3452994 L111.711557,88.3452994 L111.711557,107.797438 L122.326181,107.797438 L122.456441,107.801701 C122.956636,107.835805 123.206731,108.074532 123.206731,108.517888 L123.206731,108.517888 L123.206731,109.702627 L123.20152,109.809203 C123.159838,110.218454 122.868061,110.423077 122.326181,110.423077 L122.326181,110.423077 L109.438139,110.423077 L109.319721,110.417867 C108.864998,110.376184 108.637639,110.084407 108.637639,109.542527 L108.637639,109.542527 L108.637639,88.3452994 L108.642376,88.21504 C108.680269,87.7148442 108.945521,87.4647498 109.438139,87.4647498 L109.438139,87.4647498 Z M130.211538,50 L101,50 L101,81 L130.211538,81 L130.211538,50 Z M109.069909,54.4647498 C109.817045,54.4647498 110.350706,54.7315804 110.670908,55.2652494 L110.670908,55.2652494 L120.693162,72.0597299 L120.757202,72.0597299 L120.733187,71.4193303 L120.733187,71.4193303 L120.725182,70.7789307 L120.725182,55.3452994 L120.729919,55.21504 C120.767812,54.7148442 121.033064,54.4647498 121.525682,54.4647498 L121.525682,54.4647498 L122.998601,54.4647498 L123.117019,54.4699602 C123.571742,54.5116426 123.7991,54.80342 123.7991,55.3452994 L123.7991,55.3452994 L123.7991,76.5425274 L123.794364,76.6727868 C123.756471,77.1729825 123.491218,77.4230769 122.998601,77.4230769 L122.998601,77.4230769 L121.589722,77.4230769 L121.407385,77.4175179 C120.755124,77.3767521 120.282241,77.111774 119.988723,76.6225774 L119.988723,76.6225774 L109.326069,58.8034574 L109.262029,58.8034574 L109.286044,59.443857 L109.286044,59.443857 L109.294049,60.0842567 L109.294049,76.5425274 L109.289312,76.6727868 C109.251419,77.1729825 108.986167,77.4230769 108.493549,77.4230769 L108.493549,77.4230769 L107.02063,77.4230769 L106.902212,77.4178666 C106.447489,77.3761842 106.22013,77.0844067 106.22013,76.5425274 L106.22013,76.5425274 L106.22013,55.3452994 L106.224867,55.21504 C106.26276,54.7148442 106.528012,54.4647498 107.02063,54.4647498 L107.02063,54.4647498 Z M130.211538,17 L101,17 L101,48 L130.211538,48 L130.211538,17 Z M122.374211,21.4647498 C122.961247,21.4647498 123.254761,21.7048973 123.254761,22.1851994 L123.254761,22.1851994 L123.254761,23.3699388 L123.24955,23.4765146 C123.207868,23.8857657 122.916091,24.0903884 122.374211,24.0903884 L122.374211,24.0903884 L110.638888,24.0903884 L110.638888,31.1988244 L121.413612,31.1988244 L121.543871,31.2030873 C122.044067,31.2371912 122.294161,31.4759182 122.294161,31.919274 L122.294161,31.919274 L122.294161,33.1040133 L122.288951,33.2105892 C122.247269,33.6198402 121.955491,33.8244629 121.413612,33.8244629 L121.413612,33.8244629 L110.638888,33.8244629 L110.638888,41.7974384 L122.854511,41.7974384 L122.98477,41.8017014 C123.484966,41.8358052 123.73506,42.0745322 123.73506,42.517888 L123.73506,42.517888 L123.73506,43.7026273 L123.72985,43.8092032 C123.688168,44.2184542 123.39639,44.4230769 122.854511,44.4230769 L122.854511,44.4230769 L108.365469,44.4230769 L108.247052,44.4178666 C107.792328,44.3761842 107.56497,44.0844067 107.56497,43.5425274 L107.56497,43.5425274 L107.56497,22.3452994 L107.569706,22.21504 C107.607599,21.7148442 107.872852,21.4647498 108.365469,21.4647498 L108.365469,21.4647498 Z" id="Combined-Shape" fill="#FFFFFF"></path>
            </g>
            <text id="Eastbourne-Netball-L" font-family="Helvetica" font-size="19" font-weight="normal" line-spacing="16" fill="#5A0891">
                <tspan x="13.3469238" y="128.689941">Eastbourne</tspan>
                <tspan x="17.871875" y="149.849219" font-size="14.4">Netball League</tspan>
            </text>
        </g>
    </g>
</svg>